subject_05
version=1
nRows=178
nColumns=3
inDegrees=yes
endheader
time	r_shoulder_elev	r_elbow_flex
91.1800	19.716728	16.035095
91.1900	19.716728	16.847887
91.2000	19.716728	18.014356
91.2100	19.716728	19.064417
91.2200	19.716728	19.635097
91.2300	19.716728	19.625514
91.2400	19.716728	19.221263
91.2500	19.716728	18.783207
91.2600	19.716728	18.659095
91.2700	19.716728	19.010834
91.2800	19.716728	19.740123
91.2900	19.716728	20.545937
91.3000	19.716728	21.083074
91.3100	19.716728	21.142330
91.3200	19.716728	20.763063
91.3300	19.716728	20.222197
91.3400	19.716728	19.903923
91.3500	19.716728	20.112468
91.3600	19.716728	20.918409
91.3700	19.716728	22.113644
91.3800	19.716728	23.298690
91.3900	19.716728	24.062966
91.4000	19.716728	24.174180
91.4100	19.716728	23.688056
91.4200	19.716728	22.926653
91.4300	19.716728	22.334898
91.4400	19.716728	22.281599
91.4500	19.716728	22.896623
91.4600	19.716728	24.018325
91.4700	19.716728	25.273478
91.4800	19.716728	26.250486
91.4900	19.716728	26.684448
91.5000	19.716728	26.569073
91.5100	19.716728	26.146411
91.5200	19.716728	25.783304
91.5300	19.716728	25.795712
91.5400	19.716728	26.304409
91.5500	19.716728	27.188210
91.5600	19.716728	28.153104
91.5700	19.716728	28.880681
91.5800	19.716728	29.183063
91.5900	19.716728	29.090732
91.6000	19.716728	28.833471
91.6100	19.716728	28.726223
91.6200	19.716728	29.016216
91.6300	19.716728	29.764430
91.6400	19.716728	30.816427
91.6500	19.716728	31.874269
91.6600	19.716728	32.633884
91.6700	19.716728	32.922995
91.6800	19.716728	32.776627
91.6900	19.716728	32.418103
91.7000	19.716728	32.157697
91.7100	19.716728	32.257740
91.7200	19.716728	32.825359
91.7300	19.716728	33.777927
91.7400	19.716728	34.890842
91.7500	19.716728	35.900052
91.7600	19.716728	36.610082
91.7700	19.716728	36.960885
91.7800	19.716728	37.030338
91.7900	19.716728	36.980706
91.8000	19.716728	36.981305
91.8100	19.716728	37.145306
91.8200	19.716728	37.505590
91.8300	19.716728	38.031234
91.8400	19.716728	38.665732
91.8500	19.716728	39.360554
91.8600	19.716728	40.085712
91.8700	19.716728	40.816634
91.8800	19.716728	41.512967
91.8900	19.716728	42.110356
91.9000	19.716728	42.537848
91.9100	19.716728	42.756209
91.9200	19.716728	42.796464
91.9300	19.716728	42.773074
91.9400	19.716728	42.856238
91.9500	19.716728	43.208439
91.9600	19.716728	43.910985
91.9700	19.716728	44.915651
91.9800	19.716728	46.048533
91.9900	19.716728	47.070617
92.0000	19.716728	47.772659
92.0100	19.716728	48.063983
92.0200	19.716728	48.015006
92.0300	19.716728	47.832514
92.0400	19.716728	47.776438
92.0500	19.716728	48.053402
92.0600	19.716728	48.733104
92.0700	19.716728	49.723524
92.0800	19.716728	50.814643
92.0900	19.716728	51.769967
92.1000	19.716728	52.424758
92.1100	19.716728	52.748493
92.1200	19.716728	52.846717
92.1300	19.716728	52.905481
92.1400	19.716728	53.106562
92.1500	19.716728	53.552511
92.1600	19.716728	54.233113
92.1700	19.716728	55.043706
92.1800	19.716728	55.841687
92.1900	19.716728	56.511901
92.2000	19.716728	57.010893
92.2100	19.716728	57.373252
92.2200	19.716728	57.682873
92.2300	19.716728	58.027784
92.2400	19.716728	58.462156
92.2500	19.716728	58.991856
92.2600	19.716728	59.585575
92.2700	19.716728	60.200280
92.2800	19.716728	60.804265
92.2900	19.716728	61.385596
92.3000	19.716728	61.944522
92.3100	19.716728	62.478902
92.3200	19.716728	62.975536
92.3300	19.716728	63.415570
92.3400	19.716728	63.791872
92.3500	19.716728	64.126873
92.3600	19.716728	64.476794
92.3700	19.716728	64.914609
92.3800	19.716728	65.496335
92.3900	19.716728	66.226588
92.4000	19.716728	67.042905
92.4100	19.716728	67.831254
92.4200	19.716728	68.470170
92.4300	19.716728	68.885443
92.4400	19.716728	69.089617
92.4500	19.716728	69.185366
92.4600	19.716728	69.327705
92.4700	19.716728	69.659682
92.4800	19.716728	70.249925
92.4900	19.716728	71.061061
92.5000	19.716728	71.964617
92.5100	19.716728	72.796574
92.5200	19.716728	73.428559
92.5300	19.716728	73.821994
92.5400	19.716728	74.040484
92.5500	19.716728	74.215476
92.5600	19.716728	74.482390
92.5700	19.716728	74.918196
92.5800	19.716728	75.510118
92.5900	19.716728	76.169469
92.6000	19.716728	76.782325
92.6100	19.716728	77.270786
92.6200	19.716728	77.633774
92.6300	19.716728	77.946896
92.6400	19.716728	78.321603
92.6500	19.716728	78.844292
92.6600	19.716728	79.526159
92.6700	19.716728	80.289524
92.6800	19.716728	80.998593
92.6900	19.716728	81.520996
92.7000	19.716728	81.791451
92.7100	19.716728	81.847665
92.7200	19.716728	81.821478
92.7300	19.716728	81.888750
92.7400	19.716728	82.199877
92.7500	19.716728	82.820512
92.7600	19.716728	83.706346
92.7700	19.716728	84.720012
92.7800	19.716728	85.680490
92.7900	19.716728	86.423753
92.8000	19.716728	86.852274
92.8100	19.716728	86.959117
92.8200	19.716728	86.824283
92.8300	19.716728	86.590395
92.8400	19.716728	86.427966
92.8500	19.716728	86.498093
92.8600	19.716728	86.916356
92.8700	19.716728	87.720387
92.8800	19.716728	88.846552
92.8900	19.716728	90.125834
92.9000	19.716728	91.310234
92.9100	19.716728	92.134309
92.9200	19.716728	92.401944
92.9300	19.716728	92.071716
92.9400	19.716728	91.304579
92.9500	19.716728	90.443129
